# Blender v2.76 (sub 0) OBJ File: 'balloon2.blend'
# www.blender.org
mtllib balloon2.mtl
o Icosphere.001
v 0.404442 -1.011835 0.129300
v 1.324155 -0.863992 -0.078245
v 1.281344 -0.846538 0.265025
v 0.469700 -0.791056 -0.689336
v 1.059620 -0.858389 0.441263
v -0.082702 -0.807987 0.738361
v -1.360878 -0.827397 0.255322
v 0.858995 -0.844140 -0.576550
v 1.131440 -0.658919 -0.695891
v 0.918118 -0.108502 0.550627
v 1.383848 -0.223173 0.130353
v -0.453549 -0.130147 0.683250
v -0.162084 -0.225151 0.769222
v -0.652216 -0.211699 -0.751941
v 0.962531 -0.140216 -0.514844
v 0.568801 -0.150518 -0.601194
v 0.315698 0.080520 -0.281387
v -0.178232 -0.192947 -0.733193
v 0.066518 0.009271 -0.475468
v -0.359767 0.099315 -0.155502
v -1.031417 -0.012049 -0.059498
v -0.654998 -0.015442 -0.442908
v -0.197438 0.135683 0.107948
v -1.095930 -0.057756 0.274203
v -0.833177 -0.149012 0.610868
v 0.393896 0.083280 0.256517
v 0.242796 -0.040782 0.570372
v -0.321720 -0.007342 0.537611
v 0.550011 0.083433 0.006593
v 0.997128 -0.034529 0.143047
v 1.148955 -0.113751 -0.308299
v 1.287197 -0.368079 -0.593048
v 0.913102 -0.397201 -0.696686
v 0.401819 -0.367424 -0.764268
v -1.149027 -0.587417 -0.771702
v -1.388557 -0.371399 -0.583853
v -1.362477 -0.171671 -0.251248
v -1.584172 -0.349453 0.133899
v -1.433327 -0.560914 0.576998
v -1.205279 -0.338760 0.669203
v -0.525996 -0.395749 0.808869
v 0.175872 -0.566232 0.851524
v 0.611428 -0.328277 0.751375
v 1.295660 -0.312476 0.547406
v 1.559833 -0.638156 0.223040
v 1.550674 -0.400622 0.001396
v 0.018740 -0.503488 -0.831089
v -0.388675 -0.546727 -0.819917
v 0.094916 -0.813948 -0.700078
v -0.584137 -0.893657 -0.652424
v -1.635209 -0.536909 -0.268200
v -1.178308 -0.875521 -0.383232
v -1.246193 -0.883368 0.062442
v -0.859284 -0.568244 0.805112
v -0.963234 -0.862945 0.574651
v -0.379030 -0.867161 0.633008
v 0.932959 -0.564441 0.750850
v 1.205351 -0.509503 0.681835
v 0.673494 -0.828760 0.632328
v 0.278894 -0.867198 0.662742
v 0.635730 -0.912325 0.339160
v 1.525763 -0.462073 -0.414361
v 1.072741 -0.862361 -0.481888
v 0.051948 -1.098129 -0.233101
v -0.170980 -0.955917 -0.483013
v -0.484794 -0.985477 -0.403072
v -0.348363 -1.094188 -0.101992
v -0.792106 -0.966746 -0.118679
v -0.287801 -1.038261 0.194023
v -0.123033 -1.020047 0.288483
v 0.865182 -0.924493 -0.284853
v 0.380202 -1.088611 -0.145294
v 0.214811 -1.040928 0.236110
v 0.359068 -1.161869 0.134502
v 0.349591 -1.163488 -0.069777
v 0.201889 -1.159914 -0.189460
v -0.176541 -1.159144 -0.198553
v -0.397562 -1.160316 0.043295
v -0.438055 -1.019360 0.048050
v -0.132526 -1.159116 0.248157
v 0.132911 -1.160368 0.245630
vn 0.207800 -0.946700 0.246300
vn -0.178000 -0.977500 0.112800
vn -0.159800 -0.969400 0.186300
vn -0.205200 -0.975000 0.085000
vn 0.606200 -0.786900 0.115600
vn -0.036500 0.824800 -0.564300
vn -0.040500 -0.387700 0.920900
vn -0.035200 -0.418400 -0.907600
vn 0.124500 -0.660300 -0.740600
vn 0.458500 0.844200 0.277700
vn 0.226200 0.949800 0.216200
vn -0.552500 0.743800 0.376200
vn -0.450500 0.892100 0.035100
vn 0.094800 0.841100 -0.532600
vn 0.001900 0.990400 -0.137900
vn -0.031100 0.950600 -0.309000
vn -0.187200 0.963300 -0.192300
vn -0.154300 0.950000 0.271600
vn 0.004400 0.948400 0.317000
vn 0.083900 0.605700 0.791300
vn 0.061500 0.996300 -0.060100
vn 0.275800 0.958200 -0.075400
vn 0.217400 0.958100 -0.186500
vn 0.645600 0.746900 -0.159400
vn 0.569600 0.730800 -0.376100
vn 0.165400 0.548300 -0.819800
vn 0.184500 0.543800 -0.818700
vn 0.120600 -0.154100 -0.980700
vn -0.008000 -0.009700 -0.999900
vn 0.141600 0.522900 -0.840500
vn 0.217000 -0.136200 -0.966600
vn -0.288200 0.426200 -0.857500
vn -0.288800 0.830600 -0.476100
vn -0.895800 -0.348400 0.276100
vn -0.702500 0.519100 0.486900
vn -0.369400 -0.006500 0.929300
vn -0.179200 0.592700 0.785200
vn 0.792900 0.539600 0.283200
vn 0.256700 0.461700 0.849100
vn 0.796700 0.046000 0.602600
vn 0.867000 0.357400 0.347200
vn 0.998200 -0.015200 -0.057600
vn 0.664600 0.732400 -0.148100
vn 0.049600 -0.378000 -0.924500
vn -0.054900 0.268400 -0.961700
vn -0.591600 -0.625600 -0.508500
vn -0.713700 -0.210500 -0.668100
vn -0.598000 -0.791600 -0.125900
vn -0.198700 -0.978900 -0.047500
vn -0.142600 0.454700 0.879200
vn -0.044400 -0.925000 0.377500
vn 0.188800 0.255000 0.948300
vn 0.115400 -0.498500 0.859100
vn 0.307800 -0.624200 0.718100
vn 0.109100 -0.991500 0.070600
vn 0.307600 -0.623900 0.718400
vn 0.798800 -0.567500 -0.199500
vn 0.181300 -0.976500 -0.116900
vn 0.147400 -0.877800 -0.455800
vn 0.048800 -0.848700 -0.526500
vn 0.018500 -0.878500 -0.477400
vn 0.128900 -0.808100 -0.574800
vn -0.071600 -0.810900 -0.580800
vn -0.274100 -0.916000 0.293000
vn -0.261600 -0.939600 -0.220700
vn 0.030000 -0.905200 0.424000
vn -0.072200 -0.948400 0.308800
vn 0.001200 -0.926200 0.377000
vn -0.057600 -0.901000 0.429900
vn 0.229600 -0.943400 0.239300
vn 0.131000 -0.943900 0.303200
vn 0.955900 -0.290600 -0.042000
vn 0.424200 -0.723200 -0.545100
vn 0.019000 -0.545600 -0.837800
vn 0.259500 -0.051500 -0.964400
vn 0.007800 -0.279000 0.960300
vn 0.428600 -0.224100 0.875300
vn 0.174000 -0.982100 0.071600
vn 0.114800 -0.499300 0.858800
vn -0.158700 -0.981500 -0.106800
vn -0.158000 -0.945400 -0.285100
vn 0.096700 -0.504900 0.857700
vn -0.466500 -0.729900 0.499600
vn -0.287900 -0.758700 -0.584400
vn 0.220500 -0.736400 -0.639600
vn 0.431800 0.869000 0.241400
vn 0.023200 0.709100 0.704800
vn -0.529000 0.844400 0.085300
vn 0.526800 -0.611400 0.590500
vn 0.423300 0.768100 -0.480500
vn 0.206800 0.929400 -0.305700
vn 0.146100 0.853200 -0.500800
vn 0.117000 0.537700 -0.835000
vn 0.073700 0.749400 -0.658000
vn -0.047100 0.943400 -0.328300
vn -0.315000 0.799900 -0.510800
vn -0.279100 0.917900 -0.282200
vn -0.192400 0.976600 0.096600
vn -0.168000 0.985300 -0.032500
vn -0.336800 0.808800 0.482100
vn -0.192500 0.898800 0.393900
vn -0.146800 0.817700 0.556600
vn 0.007500 0.761100 0.648500
vn 0.032600 0.924000 0.381000
vn 0.100500 0.619200 0.778800
vn 0.102900 0.907100 0.408100
vn 0.076200 0.995900 0.048200
vn 0.214200 0.967500 0.134400
vn 0.438100 0.898900 -0.010400
vn 0.246700 0.202900 -0.947600
vn 0.048100 0.327900 -0.943500
vn -0.070300 0.144900 -0.986900
vn 0.029800 0.221200 -0.974800
vn -0.784600 0.594100 -0.177400
vn -0.910800 -0.394600 0.121700
vn -0.044800 0.064900 0.996900
vn -0.002800 0.232000 0.972700
vn -0.114500 0.450100 0.885600
vn 0.060800 0.290600 0.954900
vn 0.129400 0.174000 0.976200
vn 0.238600 0.452100 0.859500
vn 0.015600 -0.385500 -0.922600
vn 0.067100 -0.870700 -0.487200
vn -0.013100 -0.428800 -0.903300
vn 0.000300 -0.938400 -0.345700
vn 0.068100 -0.871100 -0.486300
vn -0.760500 0.581300 -0.289400
vn -0.609200 -0.785800 -0.106600
vn -0.167500 0.303100 0.938100
vn -0.323400 -0.509500 0.797400
vn -0.084100 -0.595300 0.799100
vn -0.136200 -0.649600 0.748000
vn 0.058200 -0.962000 0.266700
vn 0.591200 -0.031600 -0.805900
vn 0.631500 -0.641100 -0.436200
vn 0.639400 -0.656000 -0.400900
vn 0.035700 -0.963300 -0.266100
vn -0.416300 -0.899000 -0.136000
vn -0.165100 -0.985500 0.039700
vn 0.241000 -0.934600 -0.261600
vn 0.240700 -0.934400 -0.262500
vn 0.501200 -0.121900 0.856700
vn 0.117900 -0.925800 0.359300
vn 0.247100 -0.952300 0.179300
vn 0.932000 -0.361900 0.018900
vn -0.536200 -0.684900 -0.493300
vn -0.881300 -0.239400 -0.407400
vn -0.560800 -0.394500 0.727900
vn -0.693600 -0.222400 0.685200
vn -0.467400 -0.216600 0.857100
vn 0.151600 -0.025200 0.988100
usemtl None
s off
f 72//1 2//1 1//1
f 55//2 7//2 79//2
f 79//3 7//3 53//3
f 55//4 79//4 69//4
f 2//5 45//5 3//5
f 18//6 14//6 22//6 19//6
f 6//7 42//7 54//7
f 50//8 35//8 48//8
f 8//9 4//9 9//9
f 10//10 44//10 11//10
f 30//11 26//11 10//11
f 24//12 38//12 40//12
f 37//13 24//13 21//13
f 15//14 16//14 17//14
f 17//15 20//15 23//15
f 17//16 19//16 20//16
f 20//17 22//17 21//17
f 23//18 24//18 28//18
f 23//19 28//19 26//19
f 10//20 27//20 43//20
f 17//21 23//21 29//21
f 30//22 31//22 29//22
f 31//23 17//23 29//23
f 31//24 11//24 62//24
f 31//25 62//25 32//25
f 33//26 16//26 15//26
f 33//27 15//27 32//27
f 33//28 4//28 34//28
f 33//29 9//29 4//29
f 34//30 16//30 33//30
f 34//31 4//31 47//31
f 35//32 36//32 14//32
f 36//33 37//33 14//33
f 51//34 7//34 38//34
f 39//35 40//35 38//35
f 40//36 39//36 54//36
f 40//37 12//37 25//37
f 44//38 46//38 11//38
f 44//39 10//39 58//39
f 44//40 58//40 45//40
f 45//41 46//41 44//41
f 46//42 45//42 62//42
f 46//43 62//43 11//43
f 47//44 4//44 49//44
f 47//45 48//45 18//45
f 51//46 35//46 52//46
f 36//47 35//47 51//47
f 53//48 7//48 51//48
f 53//49 52//49 68//49
f 41//50 12//50 40//50
f 56//51 55//51 70//51
f 57//52 58//52 43//52
f 59//53 57//53 42//53
f 59//54 58//54 57//54
f 5//55 61//55 3//55
f 5//56 58//56 59//56
f 62//57 45//57 2//57
f 2//58 71//58 63//58
f 72//59 64//59 4//59
f 64//60 65//60 4//60
f 72//61 4//61 8//61
f 64//62 77//62 65//62
f 65//63 77//63 66//63
f 67//64 79//64 68//64
f 67//65 68//65 66//65
f 70//66 6//66 56//66
f 70//67 55//67 69//67
f 70//68 73//68 60//68
f 60//69 6//69 70//69
f 59//70 73//70 61//70
f 1//71 3//71 61//71
f 74//72 75//72 1//72
f 76//73 72//73 75//73
f 76//74 77//74 64//74
f 76//75 64//75 72//75
f 81//76 70//76 80//76
f 81//77 74//77 73//77
f 2//78 3//78 1//78
f 60//79 59//79 42//79
f 52//80 66//80 68//80
f 66//81 52//81 50//81
f 42//82 6//82 60//82
f 7//83 55//83 39//83
f 35//84 50//84 52//84
f 63//85 8//85 9//85
f 10//86 11//86 30//86
f 12//87 13//87 27//87
f 24//88 37//88 38//88
f 5//89 3//89 45//89 58//89
f 15//90 31//90 32//90
f 15//91 17//91 31//91
f 19//92 17//92 16//92
f 18//93 16//93 34//93
f 18//94 19//94 16//94
f 20//95 19//95 22//95
f 37//96 22//96 14//96
f 21//97 22//97 37//97
f 23//98 21//98 24//98
f 23//99 20//99 21//99
f 25//100 24//100 40//100
f 24//101 25//101 28//101
f 25//102 12//102 28//102
f 27//103 28//103 12//103
f 28//104 27//104 26//104
f 27//105 13//105 43//105
f 27//106 10//106 26//106
f 26//107 29//107 23//107
f 30//108 29//108 26//108
f 31//109 30//109 11//109
f 33//110 32//110 9//110
f 34//111 47//111 18//111
f 35//112 14//112 48//112
f 48//113 14//113 18//113
f 51//114 38//114 37//114
f 39//115 38//115 7//115
f 41//116 54//116 42//116
f 41//117 42//117 13//117
f 41//118 13//118 12//118
f 13//119 42//119 43//119
f 57//120 43//120 42//120
f 43//121 58//121 10//121
f 49//122 48//122 47//122
f 49//123 4//123 65//123
f 49//124 50//124 48//124
f 50//125 65//125 66//125
f 65//126 50//126 49//126
f 36//127 51//127 37//127
f 52//128 53//128 51//128
f 40//129 54//129 41//129
f 55//130 54//130 39//130
f 55//131 56//131 54//131
f 56//132 6//132 54//132
f 61//133 5//133 59//133
f 32//134 62//134 9//134
f 9//135 62//135 63//135
f 2//136 63//136 62//136
f 63//137 71//137 8//137
f 67//138 66//138 77//138
f 68//139 79//139 53//139
f 72//140 71//140 2//140
f 71//141 72//141 8//141
f 73//142 74//142 1//142
f 60//143 73//143 59//143
f 61//144 73//144 1//144
f 1//145 75//145 72//145
f 67//146 77//146 78//146
f 67//147 78//147 79//147
f 69//148 78//148 80//148
f 79//149 78//149 69//149
f 69//150 80//150 70//150
f 70//151 81//151 73//151
