# Blender v2.76 (sub 0) OBJ File: 'balloon1.blend'
# www.blender.org
mtllib balloon1.mtl
o Icosphere.001
v 0.344585 -1.430426 0.150890
v 0.973677 -0.456121 -0.087797
v 0.929461 -0.454378 0.285449
v 0.356413 -0.378622 -0.952906
v 0.790872 -0.520582 0.523725
v -0.045478 -0.467075 0.972110
v -0.973057 -0.397330 0.244197
v 0.628284 -0.511977 -0.718637
v 0.804751 -0.125360 -0.788994
v 0.669582 0.613367 0.635055
v 0.991964 0.467018 0.126403
v -0.305153 0.585743 0.897801
v -0.096113 0.464243 1.013721
v -0.457923 0.481661 -0.929686
v 0.699446 0.572892 -0.650913
v 0.420710 0.559744 -0.834061
v 0.253621 0.854608 -0.402853
v -0.112623 0.505594 -1.012039
v 0.061546 0.763676 -0.664539
v -0.278130 0.878594 -0.233118
v -0.744110 0.736465 -0.078447
v -0.475929 0.732136 -0.553782
v -0.154218 0.925009 0.122101
v -0.781104 0.678132 0.273320
v -0.577320 0.561666 0.739727
v 0.313660 0.858130 0.322422
v 0.189991 0.699795 0.745604
v -0.217410 0.742474 0.701431
v 0.437681 0.858325 -0.014559
v 0.745956 0.707775 0.155939
v 0.841722 0.606668 -0.350152
v 0.913227 0.282081 -0.652219
v 0.652692 0.240910 -0.880971
v 0.296613 0.281410 -1.053939
v -0.783461 -0.002482 -0.825309
v -0.950281 0.277843 -0.565356
v -0.962317 0.532747 -0.252460
v -1.086515 0.305853 0.118570
v -0.981460 0.034115 0.551010
v -0.822638 0.319500 0.708852
v -0.349557 0.241970 1.067178
v 0.139254 0.000714 1.124691
v 0.442593 0.332631 0.989657
v 0.919121 0.353045 0.569355
v 1.103103 -0.070403 0.214582
v 1.096724 0.240547 -0.003194
v 0.029820 0.096787 -1.144037
v -0.253921 0.044644 -1.128973
v 0.082757 -0.455120 -0.967390
v -0.418281 -0.546463 -0.846184
v -1.122059 0.066611 -0.246325
v -0.853564 -0.489761 -0.435825
v -0.914270 -0.548406 0.056379
v -0.581673 0.013569 0.992213
v -0.691509 -0.499262 0.648176
v -0.270120 -0.633967 0.830058
v 0.666521 0.018435 0.923767
v 0.856227 0.097699 0.770800
v 0.499316 -0.464386 0.829141
v 0.217425 -0.583037 0.870150
v 0.508301 -0.923767 0.433853
v 1.079375 0.162121 -0.400156
v 0.786279 -0.528469 -0.532348
v 0.045445 -1.470041 -0.337748
v -0.125334 -0.886536 -0.674713
v -0.370361 -0.911316 -0.566925
v -0.298131 -1.476129 -0.160968
v -0.622299 -0.960144 -0.159973
v -0.246109 -1.464152 0.238159
v -0.104112 -1.440907 0.365522
v 0.665314 -0.770020 -0.343475
v 0.322659 -1.430841 -0.219354
v 0.184943 -1.467556 0.294907
v 0.309371 -1.621907 0.157906
v 0.301133 -1.617420 -0.117532
v 0.174018 -1.619412 -0.278905
v -0.152195 -1.618430 -0.291165
v -0.343411 -1.619925 0.034927
v -0.374185 -1.440029 0.041338
v -0.114283 -1.618394 0.311151
v 0.114981 -1.619991 0.307743
vn 0.833600 -0.550200 -0.048800
vn -0.759200 -0.513800 0.399500
vn -0.844600 -0.514100 0.149200
vn -0.743100 -0.521300 0.419600
vn 0.913100 -0.392600 0.110000
vn -0.170300 0.823000 -0.541900
vn -0.179600 -0.240200 0.954000
vn -0.459500 -0.276100 -0.844200
vn 0.496000 -0.369400 -0.785900
vn 0.727300 0.626300 0.280700
vn 0.399600 0.885200 0.238100
vn -0.791200 0.507000 0.342000
vn -0.700500 0.712300 0.044500
vn 0.269400 0.840400 -0.470300
vn 0.003000 0.991400 -0.130600
vn -0.050900 0.954400 -0.294300
vn -0.347000 0.915400 -0.204100
vn -0.299900 0.918800 0.256800
vn 0.007300 0.953500 0.301200
vn 0.279800 0.657500 0.699600
vn 0.098900 0.993500 -0.056400
vn 0.474900 0.875900 -0.085100
vn 0.395800 0.897100 -0.196200
vn 0.867700 0.478900 -0.133200
vn 0.821600 0.474700 -0.315600
vn 0.473700 0.455600 -0.753700
vn 0.561900 0.416300 -0.714900
vn 0.425600 -0.099100 -0.899400
vn 0.379100 -0.074200 -0.922400
vn 0.433400 0.431700 -0.791100
vn 0.383100 -0.105800 -0.917600
vn -0.643100 0.278700 -0.713200
vn -0.622500 0.594800 -0.508500
vn -0.976000 -0.125800 0.177500
vn -0.879900 0.275700 0.387000
vn -0.739500 0.039900 0.672000
vn -0.487400 0.394400 0.779100
vn 0.926800 0.297700 0.229000
vn 0.599400 0.399500 0.693600
vn 0.919700 0.077100 0.384900
vn 0.946600 0.197800 0.254700
vn 0.999100 -0.008900 -0.041900
vn 0.868600 0.477500 -0.132300
vn 0.131400 -0.290700 -0.947700
vn -0.101100 0.273600 -0.956500
vn -0.848400 -0.250600 -0.466300
vn -0.864700 -0.051300 -0.499600
vn -0.942800 -0.332200 -0.027800
vn -0.843400 -0.511400 -0.164900
vn -0.497600 0.434200 0.750900
vn -0.473100 -0.510600 0.717900
vn 0.552600 0.225600 0.802300
vn 0.348900 -0.295100 0.889500
vn 0.672100 -0.359600 0.647200
vn 0.757100 -0.592100 0.275900
vn 0.647900 -0.340700 0.681200
vn 0.966000 -0.227400 -0.123300
vn 0.782400 -0.576300 -0.236000
vn 0.394800 -0.533900 -0.747700
vn 0.020800 -0.495400 -0.868400
vn 0.384500 -0.536200 -0.751400
vn 0.141900 -0.463600 -0.874600
vn -0.327000 -0.429200 -0.841900
vn -0.826600 -0.518900 -0.218100
vn -0.730300 -0.457800 -0.507000
vn -0.149700 -0.516200 0.843300
vn -0.518600 -0.525900 0.674200
vn 0.151800 -0.542800 0.826000
vn 0.092800 -0.530400 0.842600
vn 0.601900 -0.514100 0.611100
vn 0.724200 -0.499500 0.475400
vn 0.982800 -0.181900 -0.032400
vn 0.724800 -0.392600 -0.566100
vn 0.034300 -0.340600 -0.939600
vn 0.395200 -0.021500 -0.918300
vn 0.012200 -0.293500 0.955900
vn 0.595800 -0.208200 0.775700
vn 0.846900 -0.521700 0.102800
vn 0.278300 -0.352400 0.893500
vn -0.648600 -0.596300 -0.473100
vn -0.618200 -0.527300 -0.582900
vn 0.188900 -0.371100 0.909200
vn -0.807100 -0.352500 0.473600
vn -0.652500 -0.413600 -0.635000
vn 0.674100 -0.418400 -0.608700
vn 0.693100 0.678300 0.244100
vn 0.043000 0.727400 0.684900
vn -0.789800 0.604300 0.105100
vn 0.848800 -0.281100 0.447900
vn 0.734600 0.541900 -0.408400
vn 0.394000 0.874000 -0.284500
vn 0.252400 0.841500 -0.477700
vn 0.215300 0.544500 -0.810700
vn 0.133900 0.762300 -0.633200
vn -0.126000 0.929400 -0.346800
vn -0.569200 0.671400 -0.474600
vn -0.514000 0.804600 -0.297300
vn -0.338800 0.933300 0.119100
vn -0.298000 0.954300 -0.020800
vn -0.658300 0.610700 0.440100
vn -0.383200 0.842800 0.377900
vn -0.351500 0.802000 0.483000
vn 0.013500 0.778600 0.627400
vn 0.057800 0.929400 0.364600
vn 0.187600 0.630000 0.753600
vn 0.251400 0.880100 0.402800
vn 0.122200 0.991500 0.045600
vn 0.372200 0.917900 0.137500
vn 0.698700 0.715300 -0.010700
vn 0.650400 0.080400 -0.755300
vn 0.086400 0.333300 -0.938900
vn -0.501800 0.153900 -0.851200
vn -0.240900 0.307400 -0.920600
vn -0.939800 0.320500 -0.118600
vn -0.979100 -0.130100 0.156100
vn -0.181400 -0.135300 0.974100
vn 0.000600 0.233100 0.972400
vn -0.215700 0.453800 0.864600
vn 0.112100 0.284800 0.952000
vn 0.353900 0.056400 0.933600
vn 0.595600 0.399100 0.697200
vn 0.005400 -0.304400 -0.952500
vn 0.212500 -0.616700 -0.758000
vn -0.147900 -0.393100 -0.907500
vn -0.267500 -0.607600 -0.747900
vn -0.109700 -0.521200 -0.846300
vn -0.907800 0.307400 -0.285300
vn -0.909300 -0.385000 -0.158000
vn -0.545200 0.296700 0.784000
vn -0.718900 -0.274500 0.638600
vn -0.469500 -0.420300 0.776500
vn -0.291200 -0.361900 0.885600
vn 0.560400 -0.533900 0.633200
vn 0.827400 -0.032100 -0.560700
vn 0.869600 -0.293000 -0.397500
vn 0.891500 -0.316300 -0.324300
vn 0.535800 -0.670000 -0.513800
vn -0.796800 -0.416600 -0.437800
vn -0.843900 -0.508300 -0.171600
vn 0.795400 -0.481600 -0.368100
vn 0.777600 -0.479600 -0.406600
vn 0.679100 -0.098200 0.727400
vn 0.334000 -0.522500 0.784500
vn 0.634800 -0.522800 0.568900
vn 0.987600 -0.145800 -0.058300
vn -0.794600 -0.387000 -0.467700
vn -0.934100 -0.148200 -0.324700
vn -0.724600 -0.334000 0.602900
vn -0.836100 -0.161700 0.524200
vn -0.637700 -0.192000 0.746000
vn 0.235000 -0.026000 0.971700
usemtl None
s off
f 72//1 2//1 1//1
f 55//2 7//2 79//2
f 79//3 7//3 53//3
f 55//4 79//4 69//4
f 2//5 45//5 3//5
f 18//6 14//6 22//6 19//6
f 6//7 42//7 54//7
f 50//8 35//8 48//8
f 8//9 4//9 9//9
f 10//10 44//10 11//10
f 30//11 26//11 10//11
f 24//12 38//12 40//12
f 37//13 24//13 21//13
f 15//14 16//14 17//14
f 17//15 20//15 23//15
f 17//16 19//16 20//16
f 20//17 22//17 21//17
f 23//18 24//18 28//18
f 23//19 28//19 26//19
f 10//20 27//20 43//20
f 17//21 23//21 29//21
f 30//22 31//22 29//22
f 31//23 17//23 29//23
f 31//24 11//24 62//24
f 31//25 62//25 32//25
f 33//26 16//26 15//26
f 33//27 15//27 32//27
f 33//28 4//28 34//28
f 33//29 9//29 4//29
f 34//30 16//30 33//30
f 34//31 4//31 47//31
f 35//32 36//32 14//32
f 36//33 37//33 14//33
f 51//34 7//34 38//34
f 39//35 40//35 38//35
f 40//36 39//36 54//36
f 40//37 12//37 25//37
f 44//38 46//38 11//38
f 44//39 10//39 58//39
f 44//40 58//40 45//40
f 45//41 46//41 44//41
f 46//42 45//42 62//42
f 46//43 62//43 11//43
f 47//44 4//44 49//44
f 47//45 48//45 18//45
f 51//46 35//46 52//46
f 36//47 35//47 51//47
f 53//48 7//48 51//48
f 53//49 52//49 68//49
f 41//50 12//50 40//50
f 56//51 55//51 70//51
f 57//52 58//52 43//52
f 59//53 57//53 42//53
f 59//54 58//54 57//54
f 5//55 61//55 3//55
f 5//56 58//56 59//56
f 62//57 45//57 2//57
f 2//58 71//58 63//58
f 72//59 64//59 4//59
f 64//60 65//60 4//60
f 72//61 4//61 8//61
f 64//62 77//62 65//62
f 65//63 77//63 66//63
f 67//64 79//64 68//64
f 67//65 68//65 66//65
f 70//66 6//66 56//66
f 70//67 55//67 69//67
f 70//68 73//68 60//68
f 60//69 6//69 70//69
f 59//70 73//70 61//70
f 1//71 3//71 61//71
f 74//72 75//72 1//72
f 76//73 72//73 75//73
f 76//74 77//74 64//74
f 76//75 64//75 72//75
f 81//76 70//76 80//76
f 81//77 74//77 73//77
f 2//78 3//78 1//78
f 60//79 59//79 42//79
f 52//80 66//80 68//80
f 66//81 52//81 50//81
f 42//82 6//82 60//82
f 7//83 55//83 39//83
f 35//84 50//84 52//84
f 63//85 8//85 9//85
f 10//86 11//86 30//86
f 12//87 13//87 27//87
f 24//88 37//88 38//88
f 5//89 3//89 45//89 58//89
f 15//90 31//90 32//90
f 15//91 17//91 31//91
f 19//92 17//92 16//92
f 18//93 16//93 34//93
f 18//94 19//94 16//94
f 20//95 19//95 22//95
f 37//96 22//96 14//96
f 21//97 22//97 37//97
f 23//98 21//98 24//98
f 23//99 20//99 21//99
f 25//100 24//100 40//100
f 24//101 25//101 28//101
f 25//102 12//102 28//102
f 27//103 28//103 12//103
f 28//104 27//104 26//104
f 27//105 13//105 43//105
f 27//106 10//106 26//106
f 26//107 29//107 23//107
f 30//108 29//108 26//108
f 31//109 30//109 11//109
f 33//110 32//110 9//110
f 34//111 47//111 18//111
f 35//112 14//112 48//112
f 48//113 14//113 18//113
f 51//114 38//114 37//114
f 39//115 38//115 7//115
f 41//116 54//116 42//116
f 41//117 42//117 13//117
f 41//118 13//118 12//118
f 13//119 42//119 43//119
f 57//120 43//120 42//120
f 43//121 58//121 10//121
f 49//122 48//122 47//122
f 49//123 4//123 65//123
f 49//124 50//124 48//124
f 50//125 65//125 66//125
f 65//126 50//126 49//126
f 36//127 51//127 37//127
f 52//128 53//128 51//128
f 40//129 54//129 41//129
f 55//130 54//130 39//130
f 55//131 56//131 54//131
f 56//132 6//132 54//132
f 61//133 5//133 59//133
f 32//134 62//134 9//134
f 9//135 62//135 63//135
f 2//136 63//136 62//136
f 63//137 71//137 8//137
f 67//138 66//138 77//138
f 68//139 79//139 53//139
f 72//140 71//140 2//140
f 71//141 72//141 8//141
f 73//142 74//142 1//142
f 60//143 73//143 59//143
f 61//144 73//144 1//144
f 1//145 75//145 72//145
f 67//146 77//146 78//146
f 67//147 78//147 79//147
f 69//148 78//148 80//148
f 79//149 78//149 69//149
f 69//150 80//150 70//150
f 70//151 81//151 73//151
