# Blender v2.76 (sub 0) OBJ File: 'landingpad.blend'
# www.blender.org
mtllib landingpadrail.mtl
o Cube.006_Cube.007
v -7.999999 4.038292 -2.990307
v -7.999999 5.038292 -2.990307
v -7.999999 4.038292 -3.990307
v -7.999999 5.038292 -3.990307
v 8.000000 4.038292 -2.990307
v 8.000000 5.038292 -2.990307
v 8.000000 4.038292 -3.990307
v 8.000000 5.038292 -3.990307
v -0.500000 4.803491 -2.990307
v 0.500000 4.803491 -2.990307
v -0.500000 4.803491 -3.990307
v 0.500000 4.803491 -3.990307
v -0.500000 2.803491 -2.990307
v 0.500000 2.803491 -2.990307
v -0.500000 2.803491 -3.990307
v 0.500000 2.803491 -3.990307
v -4.174006 4.803491 -2.990307
v -3.174006 4.803491 -2.990307
v -4.174006 4.803491 -3.990307
v -3.174006 4.803491 -3.990307
v -4.174006 2.803491 -2.990307
v -3.174006 2.803491 -2.990307
v -4.174006 2.803491 -3.990307
v -3.174006 2.803491 -3.990307
v -7.296912 4.803491 -2.990307
v -6.296912 4.803491 -2.990307
v -7.296912 4.803491 -3.990307
v -6.296912 4.803491 -3.990307
v -7.296912 2.803491 -2.990307
v -6.296912 2.803491 -2.990307
v -7.296912 2.803491 -3.990307
v -6.296912 2.803491 -3.990307
v 3.082158 4.803491 -2.990307
v 4.082158 4.803491 -2.990307
v 3.082158 4.803491 -3.990307
v 4.082158 4.803491 -3.990307
v 3.082158 2.803491 -2.990307
v 4.082158 2.803491 -2.990307
v 3.082158 2.803491 -3.990307
v 4.082158 2.803491 -3.990307
v 6.664315 4.803491 -2.990307
v 7.664315 4.803491 -2.990307
v 6.664315 4.803491 -3.990307
v 7.664315 4.803491 -3.990307
v 6.664316 2.803491 -2.990307
v 7.664316 2.803491 -2.990307
v 6.664316 2.803491 -3.990307
v 7.664316 2.803491 -3.990307
v 6.664315 2.787578 -2.990307
v 7.664315 2.787578 -2.990307
v 6.664315 2.787578 -3.990307
v 7.664315 2.787578 -3.990307
v 6.664315 0.787578 -2.990307
v 7.664315 0.787578 -2.990307
v 6.664315 0.787578 -3.990307
v 7.664315 0.787578 -3.990307
v 3.082158 2.787578 -2.990307
v 4.082158 2.787578 -2.990307
v 3.082158 2.787578 -3.990307
v 4.082158 2.787578 -3.990307
v 3.082158 0.787578 -2.990307
v 4.082158 0.787578 -2.990307
v 3.082158 0.787578 -3.990307
v 4.082158 0.787578 -3.990307
v -7.296913 2.787578 -2.990307
v -6.296913 2.787578 -2.990307
v -7.296913 2.787578 -3.990307
v -6.296913 2.787578 -3.990307
v -7.296913 0.787578 -2.990307
v -6.296913 0.787578 -2.990307
v -7.296913 0.787578 -3.990307
v -6.296913 0.787578 -3.990307
v -4.174006 2.787578 -2.990307
v -3.174006 2.787578 -2.990307
v -4.174006 2.787578 -3.990307
v -3.174006 2.787578 -3.990307
v -4.174006 0.787578 -2.990307
v -3.174006 0.787578 -2.990307
v -4.174006 0.787578 -3.990307
v -3.174006 0.787578 -3.990307
v -0.500000 2.787578 -2.990307
v 0.500000 2.787578 -2.990307
v -0.500000 2.787578 -3.990307
v 0.500000 2.787578 -3.990307
v -0.500000 0.787578 -2.990307
v 0.500000 0.787578 -2.990307
v -0.500000 0.787578 -3.990307
v 0.500000 0.787578 -3.990307
v -8.000000 2.022379 -2.990307
v -8.000000 3.022379 -2.990307
v -8.000000 2.022379 -3.990307
v -8.000000 3.022379 -3.990307
v 8.000000 2.022379 -2.990307
v 8.000000 3.022379 -2.990307
v 8.000000 2.022379 -3.990307
v 8.000000 3.022379 -3.990307
vt 0.916667 0.562500
vt 0.916667 0.500000
vt 0.958333 0.500000
vt 0.958333 0.562500
vt 0.458334 1.000000
vt 0.458334 0.000000
vt 0.500000 0.000000
vt 0.500000 1.000000
vt 0.916667 0.437500
vt 0.958333 0.437500
vt 0.375000 0.000000
vt 0.375000 1.000000
vt 0.333333 1.000000
vt 0.333334 0.000000
vt 0.166667 0.000000
vt 0.250000 0.000000
vt 0.250000 1.000000
vt 0.166667 1.000000
vt 0.083333 0.000000
vt 0.083334 1.000000
vt 0.583334 0.250000
vt 0.583334 0.187500
vt 0.666667 0.187500
vt 0.666667 0.250000
vt 0.500000 0.250000
vt 0.583334 0.312500
vt 0.500000 0.312500
vt 0.583334 0.437500
vt 0.500000 0.437500
vt 0.500000 0.375000
vt 0.583334 0.375000
vt 0.833334 0.250000
vt 0.750000 0.250000
vt 0.750000 0.187500
vt 0.833334 0.187500
vt 0.666667 0.687500
vt 0.666667 0.625000
vt 0.750000 0.625000
vt 0.750000 0.687500
vt 0.916667 0.312500
vt 0.916667 0.250000
vt 1.000000 0.250000
vt 1.000000 0.312500
vt 0.833333 0.062500
vt 0.916667 0.062500
vt 0.916667 0.125000
vt 0.833333 0.125000
vt 0.916667 0.187500
vt 1.000000 0.187500
vt 0.833333 0.000000
vt 0.916667 0.000000
vt 0.833333 0.437500
vt 0.833333 0.375000
vt 0.916667 0.375000
vt 0.833333 0.500000
vt 0.750000 0.500000
vt 0.750000 0.437500
vt 0.583334 0.500000
vt 0.666667 0.500000
vt 0.666667 0.562500
vt 0.583334 0.562500
vt 0.833334 0.312500
vt 0.500000 0.562500
vt 0.583334 0.625000
vt 0.500000 0.625000
vt 0.833333 0.625000
vt 0.833333 0.687500
vt 1.000000 0.125000
vt 0.500000 0.500000
vt 0.666667 0.000000
vt 0.666667 0.062500
vt 0.583334 0.062500
vt 0.583334 0.000000
vt 0.666667 0.312500
vt 0.833333 0.562500
vt 0.916667 0.625000
vt 0.750000 0.312500
vt 0.666667 0.375000
vt 0.666667 0.437500
vt 0.583334 0.125000
vt 0.666667 0.125000
vt 0.916667 0.687500
vt 0.750000 0.000000
vt 0.750000 0.062500
vt 1.000000 0.000000
vt 1.000000 0.062500
vt 0.750000 0.125000
vt 0.750000 0.375000
vt 0.583334 0.687500
vt 0.500000 0.187500
vt 0.500000 0.062500
vt 0.500000 0.125000
vt 0.750000 0.562500
vt 0.500000 0.687500
vt 0.958333 0.312500
vt 0.958333 0.375000
vt 0.416667 1.000000
vt 0.416667 0.000000
vt 0.000000 0.000000
vt 0.000000 1.000000
vn -1.000000 0.000000 0.000000
vn 0.000000 0.000000 -1.000000
vn 1.000000 0.000000 0.000000
vn 0.000000 0.000000 1.000000
vn 0.000000 -1.000000 0.000000
vn 0.000000 1.000000 0.000000
usemtl Material.002
s off
f 2/1/1 4/2/1 3/3/1 1/4/1
f 4/5/2 8/6/2 7/7/2 3/8/2
f 8/2/3 6/9/3 5/10/3 7/3/3
f 6/11/4 2/12/4 1/13/4 5/14/4
f 1/15/5 3/16/5 7/17/5 5/18/5
f 6/19/6 8/15/6 4/18/6 2/20/6
f 10/21/6 12/22/6 11/23/6 9/24/6
f 12/25/2 16/21/2 15/26/2 11/27/2
f 16/28/5 14/29/5 13/30/5 15/31/5
f 14/27/4 10/26/4 9/31/4 13/30/4
f 9/32/1 11/33/1 15/34/1 13/35/1
f 14/36/3 16/37/3 12/38/3 10/39/3
f 18/40/6 20/41/6 19/42/6 17/43/6
f 20/44/2 24/45/2 23/46/2 19/47/2
f 24/42/5 22/41/5 21/48/5 23/49/5
f 22/50/4 18/51/4 17/45/4 21/44/4
f 17/9/1 19/52/1 23/53/1 21/54/1
f 22/55/3 24/52/3 20/9/3 18/2/3
f 26/56/6 28/57/6 27/52/6 25/55/6
f 28/58/2 32/59/2 31/60/2 27/61/2
f 32/62/5 30/32/5 29/41/5 31/40/5
f 30/63/4 26/61/4 25/64/4 29/65/4
f 25/37/1 27/64/1 31/61/1 29/60/1
f 30/39/3 32/38/3 28/66/3 26/67/3
f 34/48/6 36/46/6 35/68/6 33/49/6
f 36/69/2 40/58/2 39/61/2 35/63/2
f 40/70/5 38/71/5 37/72/5 39/73/5
f 38/21/4 34/24/4 33/74/4 37/26/4
f 33/54/1 35/53/1 39/62/1 37/40/1
f 38/66/3 40/75/3 36/1/3 34/76/3
f 42/74/6 44/24/6 43/33/6 41/77/6
f 44/28/2 48/31/2 47/78/2 43/79/2
f 48/80/5 46/72/5 45/71/5 47/81/5
f 46/28/4 42/79/4 41/59/4 45/58/4
f 41/66/1 43/76/1 47/82/1 45/67/1
f 46/75/3 48/55/3 44/2/3 42/1/3
f 50/24/6 52/23/6 51/34/6 49/33/6
f 52/69/2 56/29/2 55/28/2 51/58/2
f 56/22/5 54/80/5 53/81/5 55/23/5
f 54/70/4 50/83/4 49/84/4 53/71/4
f 49/85/1 51/86/1 55/45/1 53/51/1
f 54/79/3 56/57/3 52/56/3 50/59/3
f 58/81/6 60/71/6 59/84/6 57/87/6
f 60/74/2 64/77/2 63/88/2 59/78/2
f 64/84/5 62/83/5 61/50/5 63/44/5
f 62/81/4 58/87/4 57/34/4 61/23/4
f 57/37/1 59/36/1 63/89/1 61/64/1
f 62/88/3 64/53/3 60/52/3 58/57/3
f 66/25/6 68/90/6 67/22/6 65/21/6
f 68/91/2 72/72/2 71/80/2 67/92/2
f 72/72/5 70/91/5 69/7/5 71/73/5
f 70/92/4 66/80/4 65/22/4 69/90/4
f 65/35/1 67/48/1 71/41/1 69/32/1
f 70/77/3 72/62/3 68/53/3 66/88/3
f 74/37/6 76/60/6 75/93/6 73/38/6
f 76/62/2 80/77/2 79/33/2 75/32/2
f 80/93/5 78/56/5 77/55/5 79/75/5
f 78/87/4 74/47/4 73/35/4 77/34/4
f 73/86/1 75/68/1 79/46/1 77/45/1
f 78/59/3 80/56/3 76/93/3 74/60/3
f 82/31/6 84/26/6 83/74/6 81/78/6
f 84/93/2 88/75/2 87/66/2 83/38/2
f 88/89/5 86/94/5 85/65/5 87/64/5
f 86/84/4 82/44/4 81/47/4 85/87/4
f 81/47/1 83/46/1 87/48/1 85/35/1
f 86/78/3 88/88/3 84/57/3 82/79/3
f 90/54/1 92/40/1 91/95/1 89/96/1
f 92/97/2 96/98/2 95/6/2 91/5/2
f 96/9/3 94/54/3 93/96/3 95/10/3
f 94/98/4 90/97/4 89/12/4 93/11/4
f 89/16/5 91/14/5 95/13/5 93/17/5
f 94/99/6 96/19/6 92/20/6 90/100/6
